<svg width="72" height="91" viewBox="0 0 72 91" fill="none" xmlns="http://www.w3.org/2000/svg">
<path d="M7.09565 17.3155L9.91304 29.3155L7.09565 41.2634L17.5826 47.7329L24 58.2199L36 55.4025L48 58.2199L54.4174 47.7329L64.9044 41.2634L62.087 29.3155L64.9044 17.3155L54.4696 10.846L48 0.359009L36 3.22857L24.0522 0.411183L17.5304 10.846L7.09565 17.3155ZM36.0522 50.3938C24.4696 50.3938 15.1304 41.0547 15.1304 29.472C15.1304 17.9938 24.4696 8.65466 36.0522 8.65466C47.5304 8.65466 56.8696 17.9938 56.8696 29.472C56.8696 41.0547 47.5304 50.3938 36.0522 50.3938ZM35.9478 45.1764C27.287 45.1764 20.3478 38.1851 20.3478 29.5242C20.3478 20.9155 27.287 13.8721 35.9478 13.8721C44.6087 13.8721 51.6522 20.9155 51.6522 29.5242C51.6522 38.1851 44.6087 45.1764 35.9478 45.1764ZM55.9826 50.9155L49.3044 62.6025L38.4522 60.1503L51.6522 90.5677L58.9565 79.0894H72L55.9826 50.9155ZM15.8087 51.2807L22.3304 63.0199L33.4435 60.359L20.3478 90.5677L13.0435 79.0894H0L15.8087 51.2807Z" fill="black"/>
</svg>
