<svg width="45" height="45" viewBox="0 0 45 45" fill="none" xmlns="http://www.w3.org/2000/svg">
<g clip-path="url(#clip0_1_133)">
<path d="M30 11.25L35.625 18.75H39.375C41.4563 18.75 43.125 20.4187 43.125 22.5V28.125H39.375C39.375 31.2375 36.8625 33.75 33.75 33.75C30.6375 33.75 28.125 31.2375 28.125 28.125H16.875C16.875 31.2375 14.3625 33.75 11.25 33.75C8.1375 33.75 5.625 31.2375 5.625 28.125H1.875V22.5C1.875 20.4187 3.54375 18.75 5.625 18.75L11.25 11.25H30ZM19.6875 14.0625H12.6563L9.1125 18.75H19.6875V14.0625ZM22.5 14.0625V18.75H32.1375L28.5938 14.0625H22.5ZM11.25 25.3125C9.69375 25.3125 8.4375 26.5688 8.4375 28.125C8.4375 29.6812 9.69375 30.9375 11.25 30.9375C12.8063 30.9375 14.0625 29.6812 14.0625 28.125C14.0625 26.5688 12.8063 25.3125 11.25 25.3125ZM33.75 25.3125C32.1938 25.3125 30.9375 26.5688 30.9375 28.125C30.9375 29.6812 32.1938 30.9375 33.75 30.9375C35.3063 30.9375 36.5625 29.6812 36.5625 28.125C36.5625 26.5688 35.3063 25.3125 33.75 25.3125Z" fill="#B8B8B8"/>
</g>
<defs>
<clipPath id="clip0_1_133">
<rect width="45" height="45" fill="white"/>
</clipPath>
</defs>
</svg>
