<svg width="85" height="85" viewBox="0 0 85 85" fill="none" xmlns="http://www.w3.org/2000/svg">
<path d="M23.9062 74.375H61.0938C62.8646 74.375 63.75 75.2604 63.75 77.0312C63.75 78.8021 62.8646 79.6875 61.0938 79.6875H23.9062C22.1354 79.6875 21.25 78.8021 21.25 77.0312C21.25 75.2604 22.1354 74.375 23.9062 74.375Z" fill="black"/>
<path d="M66.4062 34.5312C66.4062 28.1909 63.8876 22.1103 59.4043 17.627C54.921 13.1437 48.8403 10.625 42.5 10.625C36.1597 10.625 30.079 13.1437 25.5957 17.627C21.1124 22.1103 18.5938 28.1909 18.5938 34.5312C18.5938 44.3381 26.4403 57.12 42.5 72.4306C58.5597 57.12 66.4062 44.3381 66.4062 34.5312ZM42.5 79.6875C23.0191 61.9809 13.2812 46.9253 13.2812 34.5312C13.2812 26.782 16.3596 19.3501 21.8392 13.8705C27.3188 8.3909 34.7507 5.3125 42.5 5.3125C50.2493 5.3125 57.6812 8.3909 63.1608 13.8705C68.6404 19.3501 71.7188 26.782 71.7188 34.5312C71.7188 46.9253 61.9809 61.9809 42.5 79.6875Z" fill="black"/>
<path d="M42.5 42.5C44.6134 42.5 46.6403 41.6604 48.1348 40.166C49.6292 38.6716 50.4688 36.6447 50.4688 34.5312C50.4688 32.4178 49.6292 30.3909 48.1348 28.8965C46.6403 27.4021 44.6134 26.5625 42.5 26.5625C40.3866 26.5625 38.3597 27.4021 36.8652 28.8965C35.3708 30.3909 34.5312 32.4178 34.5312 34.5312C34.5312 36.6447 35.3708 38.6716 36.8652 40.166C38.3597 41.6604 40.3866 42.5 42.5 42.5ZM42.5 47.8125C38.9776 47.8125 35.5995 46.4132 33.1087 43.9225C30.618 41.4318 29.2188 38.0537 29.2188 34.5312C29.2188 31.0088 30.618 27.6307 33.1087 25.14C35.5995 22.6493 38.9776 21.25 42.5 21.25C46.0224 21.25 49.4005 22.6493 51.8913 25.14C54.382 27.6307 55.7812 31.0088 55.7812 34.5312C55.7812 38.0537 54.382 41.4318 51.8913 43.9225C49.4005 46.4132 46.0224 47.8125 42.5 47.8125Z" fill="black"/>
</svg>
