<svg width="426" height="19" viewBox="0 0 426 19" fill="none" xmlns="http://www.w3.org/2000/svg">
<path d="M0.896484 8.69824C0.896484 8.10059 0.972656 7.52637 1.125 6.97559C1.2832 6.4248 1.50293 5.90918 1.78418 5.42871C2.06543 4.94824 2.40234 4.51172 2.79492 4.11914C3.1875 3.72656 3.62402 3.38965 4.10449 3.1084C4.58496 2.82715 5.10059 2.61035 5.65137 2.45801C6.20801 2.2998 6.78516 2.2207 7.38281 2.2207C7.98047 2.2207 8.55469 2.2998 9.10547 2.45801C9.65625 2.61035 10.1719 2.82715 10.6523 3.1084C11.1328 3.38965 11.5693 3.72656 11.9619 4.11914C12.3545 4.51172 12.6914 4.94824 12.9727 5.42871C13.2539 5.90918 13.4707 6.4248 13.623 6.97559C13.7812 7.52637 13.8604 8.10059 13.8604 8.69824C13.8604 9.2959 13.7812 9.87305 13.623 10.4297C13.4707 10.9805 13.2539 11.4961 12.9727 11.9766C12.6914 12.4512 12.3545 12.8877 11.9619 13.2861C11.5693 13.6787 11.1328 14.0156 10.6523 14.2969C10.1719 14.5723 9.65625 14.7891 9.10547 14.9473C8.55469 15.0996 7.98047 15.1758 7.38281 15.1758C6.78516 15.1758 6.20801 15.0996 5.65137 14.9473C5.10059 14.7891 4.58496 14.5723 4.10449 14.2969C3.62402 14.0156 3.1875 13.6787 2.79492 13.2861C2.40234 12.8877 2.06543 12.4512 1.78418 11.9766C1.50293 11.4961 1.2832 10.9805 1.125 10.4297C0.972656 9.87305 0.896484 9.2959 0.896484 8.69824ZM1.90723 8.69824C1.90723 9.46582 2.04785 10.1865 2.3291 10.8604C2.61035 11.5342 2.99707 12.123 3.48926 12.627C3.98145 13.125 4.55859 13.5205 5.2207 13.8135C5.88867 14.1006 6.60938 14.2441 7.38281 14.2441C8.15039 14.2441 8.86523 14.1006 9.52734 13.8135C10.1953 13.5205 10.7754 13.125 11.2676 12.627C11.7598 12.123 12.1465 11.5342 12.4277 10.8604C12.709 10.1865 12.8496 9.46582 12.8496 8.69824C12.8496 7.93066 12.709 7.20996 12.4277 6.53613C12.1465 5.8623 11.7598 5.27637 11.2676 4.77832C10.7754 4.27441 10.1953 3.87891 9.52734 3.5918C8.86523 3.29883 8.15039 3.15234 7.38281 3.15234C6.60938 3.15234 5.88867 3.29883 5.2207 3.5918C4.55859 3.87891 3.98145 4.27441 3.48926 4.77832C2.99707 5.27637 2.61035 5.8623 2.3291 6.53613C2.04785 7.20996 1.90723 7.93066 1.90723 8.69824ZM9.66797 10.7373C9.66797 11.0186 9.61523 11.2822 9.50977 11.5283C9.4043 11.7686 9.25781 11.9795 9.07031 12.1611C8.88867 12.3428 8.6748 12.4863 8.42871 12.5918C8.18848 12.6973 7.92773 12.75 7.64648 12.75H7.11035C6.8291 12.75 6.56543 12.6973 6.31934 12.5918C6.0791 12.4863 5.86816 12.3428 5.68652 12.1611C5.50488 11.9795 5.36133 11.7686 5.25586 11.5283C5.15039 11.2822 5.09766 11.0186 5.09766 10.7373V6.66797C5.09766 6.38672 5.15039 6.12598 5.25586 5.88574C5.36133 5.63965 5.50488 5.42578 5.68652 5.24414C5.86816 5.05664 6.0791 4.91016 6.31934 4.80469C6.56543 4.69922 6.8291 4.64648 7.11035 4.64648H7.64648C7.92773 4.64648 8.18848 4.69922 8.42871 4.80469C8.6748 4.91016 8.88867 5.05664 9.07031 5.24414C9.25781 5.42578 9.4043 5.63965 9.50977 5.88574C9.61523 6.12598 9.66797 6.38672 9.66797 6.66797V7.11621L8.65723 7.27441V6.66797C8.65723 6.52148 8.62793 6.38672 8.56934 6.26367C8.5166 6.13477 8.44336 6.02344 8.34961 5.92969C8.25586 5.83594 8.14453 5.7627 8.01562 5.70996C7.89258 5.65137 7.75781 5.62207 7.61133 5.62207H7.14551C7.00488 5.62207 6.87012 5.65137 6.74121 5.70996C6.6123 5.7627 6.50098 5.83594 6.40723 5.92969C6.31348 6.02344 6.2373 6.13477 6.17871 6.26367C6.12598 6.38672 6.09961 6.52148 6.09961 6.66797V10.7373C6.09961 10.8779 6.12598 11.0127 6.17871 11.1416C6.2373 11.2646 6.31348 11.373 6.40723 11.4668C6.50098 11.5605 6.6123 11.6367 6.74121 11.6953C6.87012 11.748 7.00488 11.7744 7.14551 11.7744H7.61133C7.75781 11.7744 7.89258 11.748 8.01562 11.6953C8.14453 11.6367 8.25586 11.5605 8.34961 11.4668C8.44336 11.373 8.5166 11.2646 8.56934 11.1416C8.62793 11.0127 8.65723 10.8779 8.65723 10.7373V10.1221L9.66797 10.2803V10.7373ZM23.7737 3.30176C23.4925 3.30176 23.2288 3.35449 22.9827 3.45996C22.7425 3.56543 22.5315 3.70898 22.3499 3.89062C22.1682 4.07227 22.0247 4.28613 21.9192 4.53223C21.8137 4.77246 21.761 5.0332 21.761 5.31445V5.82422L20.6272 5.63965V5.31445C20.6272 4.88672 20.7063 4.48535 20.8645 4.11035C21.0286 3.73535 21.2512 3.40723 21.5325 3.12598C21.8137 2.84473 22.1419 2.625 22.5169 2.4668C22.8919 2.30273 23.2932 2.2207 23.721 2.2207H24.2571C24.6848 2.2207 25.0862 2.29688 25.4612 2.44922C25.8421 2.60156 26.1731 2.82129 26.4544 3.1084C26.7356 3.39551 26.9554 3.74121 27.1136 4.14551C27.2776 4.54395 27.3596 4.99512 27.3596 5.49902C27.3596 5.99707 27.2835 6.49805 27.1311 7.00195C26.9846 7.50586 26.7884 8.00098 26.5423 8.4873C26.302 8.97363 26.0237 9.44531 25.7073 9.90234C25.3968 10.3594 25.0774 10.79 24.7493 11.1943C23.9817 12.1377 23.1116 13.0459 22.1389 13.9189H27.4475V15H20.3548V14.1035C21.4505 13.2012 22.429 12.2666 23.2903 11.2998C23.6595 10.8838 24.0198 10.4414 24.3714 9.97266C24.7229 9.50391 25.0364 9.02344 25.3118 8.53125C25.5872 8.0332 25.8069 7.5293 25.971 7.01953C26.1409 6.50391 26.2259 5.99707 26.2259 5.49902C26.2259 5.12988 26.1702 4.80762 26.0589 4.53223C25.9475 4.25684 25.7981 4.02832 25.6106 3.84668C25.4231 3.66504 25.2063 3.53027 24.9602 3.44238C24.72 3.34863 24.468 3.30176 24.2044 3.30176H23.7737ZM36.8779 12.082C36.8779 12.5098 36.7958 12.9111 36.6318 13.2861C36.4736 13.6611 36.2538 13.9893 35.9726 14.2705C35.6913 14.5518 35.3632 14.7744 34.9882 14.9385C34.6132 15.0967 34.2118 15.1758 33.7841 15.1758H33.248C32.8202 15.1758 32.4159 15.0967 32.0351 14.9385C31.6601 14.7744 31.332 14.5518 31.0507 14.2705C30.7695 13.9893 30.5468 13.6611 30.3827 13.2861C30.2245 12.9111 30.1454 12.5098 30.1454 12.082V5.31445C30.1454 4.88672 30.2245 4.48535 30.3827 4.11035C30.5468 3.73535 30.7695 3.40723 31.0507 3.12598C31.332 2.84473 31.6601 2.625 32.0351 2.4668C32.4159 2.30273 32.8202 2.2207 33.248 2.2207H33.7841C34.2118 2.2207 34.6132 2.30273 34.9882 2.4668C35.3632 2.625 35.6913 2.84473 35.9726 3.12598C36.2538 3.40723 36.4736 3.73535 36.6318 4.11035C36.7958 4.48535 36.8779 4.88672 36.8779 5.31445V12.082ZM35.7441 5.31445C35.7441 5.0332 35.6913 4.77246 35.5859 4.53223C35.4804 4.28613 35.3368 4.07227 35.1552 3.89062C34.9736 3.70898 34.7597 3.56543 34.5136 3.45996C34.2734 3.35449 34.0126 3.30176 33.7314 3.30176H33.3007C33.0195 3.30176 32.7558 3.35449 32.5097 3.45996C32.2695 3.56543 32.0556 3.70898 31.8681 3.89062C31.6864 4.07227 31.5429 4.28613 31.4374 4.53223C31.332 4.77246 31.2792 5.0332 31.2792 5.31445V12.082C31.2792 12.3633 31.332 12.627 31.4374 12.873C31.5429 13.1133 31.6864 13.3271 31.8681 13.5146C32.0556 13.6963 32.2695 13.8398 32.5097 13.9453C32.7558 14.0508 33.0195 14.1035 33.3007 14.1035H33.7314C34.0126 14.1035 34.2734 14.0508 34.5136 13.9453C34.7597 13.8398 34.9736 13.6963 35.1552 13.5146C35.3368 13.3271 35.4804 13.1133 35.5859 12.873C35.6913 12.627 35.7441 12.3633 35.7441 12.082V5.31445ZM42.6519 3.30176C42.3707 3.30176 42.107 3.35449 41.8609 3.45996C41.6207 3.56543 41.4097 3.70898 41.2281 3.89062C41.0464 4.07227 40.9029 4.28613 40.7974 4.53223C40.692 4.77246 40.6392 5.0332 40.6392 5.31445V5.82422L39.5054 5.63965V5.31445C39.5054 4.88672 39.5845 4.48535 39.7427 4.11035C39.9068 3.73535 40.1295 3.40723 40.4107 3.12598C40.692 2.84473 41.0201 2.625 41.3951 2.4668C41.7701 2.30273 42.1714 2.2207 42.5992 2.2207H43.1353C43.563 2.2207 43.9644 2.29688 44.3394 2.44922C44.7203 2.60156 45.0513 2.82129 45.3326 3.1084C45.6138 3.39551 45.8336 3.74121 45.9918 4.14551C46.1558 4.54395 46.2379 4.99512 46.2379 5.49902C46.2379 5.99707 46.1617 6.49805 46.0093 7.00195C45.8629 7.50586 45.6666 8.00098 45.4205 8.4873C45.1802 8.97363 44.9019 9.44531 44.5855 9.90234C44.275 10.3594 43.9556 10.79 43.6275 11.1943C42.8599 12.1377 41.9898 13.0459 41.0171 13.9189H46.3257V15H39.233V14.1035C40.3287 13.2012 41.3072 12.2666 42.1685 11.2998C42.5377 10.8838 42.898 10.4414 43.2496 9.97266C43.6011 9.50391 43.9146 9.02344 44.19 8.53125C44.4654 8.0332 44.6851 7.5293 44.8492 7.01953C45.0191 6.50391 45.1041 5.99707 45.1041 5.49902C45.1041 5.12988 45.0484 4.80762 44.9371 4.53223C44.8257 4.25684 44.6763 4.02832 44.4888 3.84668C44.3013 3.66504 44.0845 3.53027 43.8384 3.44238C43.5982 3.34863 43.3462 3.30176 43.0826 3.30176H42.6519ZM51.9064 3.30176C51.6252 3.30176 51.3615 3.35449 51.1154 3.45996C50.8752 3.56543 50.6643 3.70898 50.4826 3.89062C50.301 4.07227 50.1574 4.28613 50.052 4.53223C49.9465 4.77246 49.8937 5.0332 49.8937 5.31445V5.82422L48.76 5.63965V5.31445C48.76 4.88672 48.8391 4.48535 48.9973 4.11035C49.1613 3.73535 49.384 3.40723 49.6652 3.12598C49.9465 2.84473 50.2746 2.625 50.6496 2.4668C51.0246 2.30273 51.426 2.2207 51.8537 2.2207H52.3898C52.8176 2.2207 53.2189 2.29688 53.5939 2.44922C53.9748 2.60156 54.3059 2.82129 54.5871 3.1084C54.8684 3.39551 55.0881 3.74121 55.2463 4.14551C55.4104 4.54395 55.4924 4.99512 55.4924 5.49902C55.4924 5.99707 55.4162 6.49805 55.2639 7.00195C55.1174 7.50586 54.9211 8.00098 54.675 8.4873C54.4348 8.97363 54.1564 9.44531 53.84 9.90234C53.5295 10.3594 53.2102 10.79 52.882 11.1943C52.1145 12.1377 51.2443 13.0459 50.2717 13.9189H55.5803V15H48.4875V14.1035C49.5832 13.2012 50.5617 12.2666 51.423 11.2998C51.7922 10.8838 52.1525 10.4414 52.5041 9.97266C52.8557 9.50391 53.1691 9.02344 53.4445 8.53125C53.7199 8.0332 53.9396 7.5293 54.1037 7.01953C54.2736 6.50391 54.3586 5.99707 54.3586 5.49902C54.3586 5.12988 54.3029 4.80762 54.1916 4.53223C54.0803 4.25684 53.9309 4.02832 53.7434 3.84668C53.5559 3.66504 53.3391 3.53027 53.093 3.44238C52.8527 3.34863 52.6008 3.30176 52.3371 3.30176H51.9064ZM70.7319 15V6.36035L70.6528 6.89648L67.7261 15H67.1284L64.1753 6.89648L64.105 6.36035V15H62.9712V2.39648H63.56L67.3833 12.7324L67.4184 13.1982L67.4536 12.7324L71.268 2.39648H71.8657V15H70.7319ZM80.5841 12.5303C80.5841 12.8936 80.5138 13.2363 80.3732 13.5586C80.2384 13.8809 80.0509 14.1621 79.8107 14.4023C79.5704 14.6426 79.2892 14.833 78.9669 14.9736C78.6446 15.1084 78.3019 15.1758 77.9386 15.1758H77.2179C76.8546 15.1758 76.5118 15.1084 76.1896 14.9736C75.8673 14.833 75.5861 14.6426 75.3458 14.4023C75.1056 14.1621 74.9152 13.8809 74.7745 13.5586C74.6398 13.2363 74.5724 12.8936 74.5724 12.5303V8.46973C74.5724 8.10645 74.6398 7.76367 74.7745 7.44141C74.9152 7.11914 75.1056 6.83789 75.3458 6.59766C75.5861 6.35742 75.8673 6.16992 76.1896 6.03516C76.5118 5.89453 76.8546 5.82422 77.2179 5.82422H77.9386C78.3019 5.82422 78.6446 5.89453 78.9669 6.03516C79.2892 6.16992 79.5704 6.35742 79.8107 6.59766C80.0509 6.83789 80.2384 7.11914 80.3732 7.44141C80.5138 7.76367 80.5841 8.10645 80.5841 8.46973V10.5879H75.6534V12.5918C75.6534 12.8086 75.6945 13.0137 75.7765 13.207C75.8585 13.3945 75.9698 13.5586 76.1105 13.6992C76.2511 13.8398 76.4152 13.9512 76.6027 14.0332C76.796 14.1152 77.0011 14.1562 77.2179 14.1562H77.9386C78.1554 14.1562 78.3575 14.1152 78.545 14.0332C78.7384 13.9512 78.9054 13.8398 79.046 13.6992C79.1866 13.5586 79.298 13.3945 79.38 13.207C79.462 13.0137 79.503 12.8086 79.503 12.5918V11.9941L80.5841 12.1699V12.5303ZM79.503 8.4082C79.503 8.19141 79.462 7.98926 79.38 7.80176C79.298 7.6084 79.1866 7.44141 79.046 7.30078C78.9054 7.16016 78.7384 7.04883 78.545 6.9668C78.3575 6.88477 78.1554 6.84375 77.9386 6.84375H77.2179C77.0011 6.84375 76.796 6.88477 76.6027 6.9668C76.4152 7.04883 76.2511 7.16016 76.1105 7.30078C75.9698 7.44141 75.8585 7.6084 75.7765 7.80176C75.6945 7.98926 75.6534 8.19141 75.6534 8.4082V9.74414H79.503V8.4082ZM86.3845 15C86.0564 15 85.7459 14.9385 85.4529 14.8154C85.1658 14.6924 84.9138 14.5225 84.697 14.3057C84.4861 14.0889 84.3162 13.8369 84.1873 13.5498C84.0642 13.2627 84.0027 12.9551 84.0027 12.627V7.02832H82.3855V6H84.0027V3.83789L85.0837 3.66211V6H87.3689V7.02832H85.0837V12.6797C85.0837 12.8613 85.116 13.0312 85.1804 13.1895C85.2507 13.3418 85.3445 13.4766 85.4617 13.5938C85.5789 13.7109 85.7166 13.8047 85.8748 13.875C86.033 13.9395 86.2029 13.9717 86.3845 13.9717H87.3689V15H86.3845ZM92.3695 7.02832C92.1527 7.02832 91.9477 7.06934 91.7543 7.15137C91.5668 7.2334 91.4027 7.34473 91.2621 7.48535C91.1215 7.62598 91.0102 7.79297 90.9281 7.98633C90.8461 8.17383 90.8051 8.37598 90.8051 8.59277V15H89.724V6H90.0844L90.6732 6.91406C90.9193 6.58008 91.227 6.31641 91.5961 6.12305C91.9711 5.92383 92.3783 5.82422 92.8178 5.82422H93.4506V7.02832H92.3695ZM101.264 12.5303C101.264 12.8936 101.193 13.2363 101.053 13.5586C100.918 13.8809 100.731 14.1621 100.49 14.4023C100.25 14.6426 99.9688 14.833 99.6465 14.9736C99.3243 15.1084 98.9815 15.1758 98.6182 15.1758H97.8975C97.5342 15.1758 97.1914 15.1084 96.8692 14.9736C96.5469 14.833 96.2657 14.6426 96.0254 14.4023C95.7852 14.1621 95.5948 13.8809 95.4541 13.5586C95.3194 13.2363 95.252 12.8936 95.252 12.5303V8.46973C95.252 8.10645 95.3194 7.76367 95.4541 7.44141C95.5948 7.11914 95.7852 6.83789 96.0254 6.59766C96.2657 6.35742 96.5469 6.16992 96.8692 6.03516C97.1914 5.89453 97.5342 5.82422 97.8975 5.82422H98.6182C98.9815 5.82422 99.3243 5.89453 99.6465 6.03516C99.9688 6.16992 100.25 6.35742 100.49 6.59766C100.731 6.83789 100.918 7.11914 101.053 7.44141C101.193 7.76367 101.264 8.10645 101.264 8.46973V12.5303ZM100.183 8.4082C100.183 8.19141 100.142 7.98926 100.06 7.80176C99.9776 7.6084 99.8662 7.44141 99.7256 7.30078C99.585 7.16016 99.418 7.04883 99.2246 6.9668C99.0371 6.88477 98.835 6.84375 98.6182 6.84375H97.8975C97.6807 6.84375 97.4756 6.88477 97.2823 6.9668C97.0948 7.04883 96.9307 7.16016 96.7901 7.30078C96.6495 7.44141 96.5381 7.6084 96.4561 7.80176C96.3741 7.98926 96.333 8.19141 96.333 8.4082V12.5918C96.333 12.8086 96.3741 13.0137 96.4561 13.207C96.5381 13.3945 96.6495 13.5586 96.7901 13.6992C96.9307 13.8398 97.0948 13.9512 97.2823 14.0332C97.4756 14.1152 97.6807 14.1562 97.8975 14.1562H98.6182C98.835 14.1562 99.0371 14.1152 99.2246 14.0332C99.418 13.9512 99.585 13.8398 99.7256 13.6992C99.8662 13.5586 99.9776 13.3945 100.06 13.207C100.142 13.0137 100.183 12.8086 100.183 12.5918V8.4082ZM115.15 15L109.894 5.82422L109.788 5.2793V15H108.655V2.39648H109.243L114.499 11.5811L114.614 12.1172V2.39648H115.747V15H115.15ZM118.278 15V14.4639L123.894 3.47754H118.454V2.39648H125.371V2.94141L119.755 13.9189H125.371V15H118.278ZM139.503 7.06348C139.503 7.49121 139.421 7.89258 139.257 8.26758C139.099 8.64258 138.879 8.9707 138.598 9.25195C138.317 9.5332 137.986 9.75586 137.605 9.91992C137.23 10.0781 136.828 10.1572 136.401 10.1572H133.544V15H132.41V2.39648H136.401C136.828 2.39648 137.23 2.47852 137.605 2.64258C137.986 2.80078 138.317 3.02051 138.598 3.30176C138.879 3.58301 139.099 3.91406 139.257 4.29492C139.421 4.66992 139.503 5.07129 139.503 5.49902V7.06348ZM138.369 5.49902C138.369 5.21777 138.317 4.95703 138.211 4.7168C138.106 4.4707 137.959 4.25684 137.772 4.0752C137.59 3.8877 137.376 3.74121 137.13 3.63574C136.89 3.53027 136.629 3.47754 136.348 3.47754H133.544V9.07617H136.348C136.629 9.07617 136.89 9.02344 137.13 8.91797C137.376 8.8125 137.59 8.66895 137.772 8.4873C137.959 8.30566 138.106 8.09473 138.211 7.85449C138.317 7.6084 138.369 7.34473 138.369 7.06348V5.49902ZM144.319 7.02832C144.102 7.02832 143.897 7.06934 143.704 7.15137C143.516 7.2334 143.352 7.34473 143.212 7.48535C143.071 7.62598 142.96 7.79297 142.878 7.98633C142.796 8.17383 142.755 8.37598 142.755 8.59277V15H141.674V6H142.034L142.623 6.91406C142.869 6.58008 143.177 6.31641 143.546 6.12305C143.921 5.92383 144.328 5.82422 144.767 5.82422H145.4V7.02832H144.319ZM153.213 12.5303C153.213 12.8936 153.143 13.2363 153.002 13.5586C152.868 13.8809 152.68 14.1621 152.44 14.4023C152.2 14.6426 151.918 14.833 151.596 14.9736C151.274 15.1084 150.931 15.1758 150.568 15.1758H149.847C149.484 15.1758 149.141 15.1084 148.819 14.9736C148.497 14.833 148.215 14.6426 147.975 14.4023C147.735 14.1621 147.544 13.8809 147.404 13.5586C147.269 13.2363 147.202 12.8936 147.202 12.5303V8.46973C147.202 8.10645 147.269 7.76367 147.404 7.44141C147.544 7.11914 147.735 6.83789 147.975 6.59766C148.215 6.35742 148.497 6.16992 148.819 6.03516C149.141 5.89453 149.484 5.82422 149.847 5.82422H150.568C150.931 5.82422 151.274 5.89453 151.596 6.03516C151.918 6.16992 152.2 6.35742 152.44 6.59766C152.68 6.83789 152.868 7.11914 153.002 7.44141C153.143 7.76367 153.213 8.10645 153.213 8.46973V12.5303ZM152.132 8.4082C152.132 8.19141 152.091 7.98926 152.009 7.80176C151.927 7.6084 151.816 7.44141 151.675 7.30078C151.535 7.16016 151.368 7.04883 151.174 6.9668C150.987 6.88477 150.785 6.84375 150.568 6.84375H149.847C149.63 6.84375 149.425 6.88477 149.232 6.9668C149.044 7.04883 148.88 7.16016 148.74 7.30078C148.599 7.44141 148.488 7.6084 148.406 7.80176C148.324 7.98926 148.283 8.19141 148.283 8.4082V12.5918C148.283 12.8086 148.324 13.0137 148.406 13.207C148.488 13.3945 148.599 13.5586 148.74 13.6992C148.88 13.8398 149.044 13.9512 149.232 14.0332C149.425 14.1152 149.63 14.1562 149.847 14.1562H150.568C150.785 14.1562 150.987 14.1152 151.174 14.0332C151.368 13.9512 151.535 13.8398 151.675 13.6992C151.816 13.5586 151.927 13.3945 152.009 13.207C152.091 13.0137 152.132 12.8086 152.132 12.5918V8.4082ZM161.747 12.5303C161.747 12.8936 161.677 13.2363 161.536 13.5586C161.402 13.8809 161.214 14.1621 160.974 14.4023C160.734 14.6426 160.452 14.833 160.13 14.9736C159.808 15.1084 159.465 15.1758 159.102 15.1758H158.829C158.425 15.1758 158.05 15.0938 157.704 14.9297C157.359 14.7656 157.063 14.5371 156.817 14.2441V18.6035H155.736V6H156.096L156.685 6.91406C156.931 6.58008 157.238 6.31641 157.608 6.12305C157.983 5.92383 158.39 5.82422 158.829 5.82422H159.102C159.465 5.82422 159.808 5.89453 160.13 6.03516C160.452 6.16992 160.734 6.35742 160.974 6.59766C161.214 6.83789 161.402 7.11914 161.536 7.44141C161.677 7.76367 161.747 8.10645 161.747 8.46973V12.5303ZM160.666 8.4082C160.666 8.19141 160.625 7.98926 160.543 7.80176C160.461 7.6084 160.35 7.44141 160.209 7.30078C160.069 7.16016 159.902 7.04883 159.708 6.9668C159.521 6.88477 159.319 6.84375 159.102 6.84375H158.381C158.164 6.84375 157.959 6.88477 157.766 6.9668C157.578 7.04883 157.414 7.16016 157.274 7.30078C157.133 7.44141 157.022 7.6084 156.94 7.80176C156.858 7.98926 156.817 8.19141 156.817 8.4082V12.5918C156.817 12.8086 156.858 13.0137 156.94 13.207C157.022 13.3945 157.133 13.5586 157.274 13.6992C157.414 13.8398 157.578 13.9512 157.766 14.0332C157.959 14.1152 158.164 14.1562 158.381 14.1562H159.102C159.319 14.1562 159.521 14.1152 159.708 14.0332C159.902 13.9512 160.069 13.8398 160.209 13.6992C160.35 13.5586 160.461 13.3945 160.543 13.207C160.625 13.0137 160.666 12.8086 160.666 12.5918V8.4082ZM170.281 12.5303C170.281 12.8936 170.211 13.2363 170.07 13.5586C169.935 13.8809 169.748 14.1621 169.508 14.4023C169.267 14.6426 168.986 14.833 168.664 14.9736C168.342 15.1084 167.999 15.1758 167.636 15.1758H166.915C166.552 15.1758 166.209 15.1084 165.887 14.9736C165.564 14.833 165.283 14.6426 165.043 14.4023C164.803 14.1621 164.612 13.8809 164.471 13.5586C164.337 13.2363 164.269 12.8936 164.269 12.5303V8.46973C164.269 8.10645 164.337 7.76367 164.471 7.44141C164.612 7.11914 164.803 6.83789 165.043 6.59766C165.283 6.35742 165.564 6.16992 165.887 6.03516C166.209 5.89453 166.552 5.82422 166.915 5.82422H167.636C167.999 5.82422 168.342 5.89453 168.664 6.03516C168.986 6.16992 169.267 6.35742 169.508 6.59766C169.748 6.83789 169.935 7.11914 170.07 7.44141C170.211 7.76367 170.281 8.10645 170.281 8.46973V10.5879H165.35V12.5918C165.35 12.8086 165.391 13.0137 165.473 13.207C165.555 13.3945 165.667 13.5586 165.807 13.6992C165.948 13.8398 166.112 13.9512 166.3 14.0332C166.493 14.1152 166.698 14.1562 166.915 14.1562H167.636C167.852 14.1562 168.054 14.1152 168.242 14.0332C168.435 13.9512 168.602 13.8398 168.743 13.6992C168.884 13.5586 168.995 13.3945 169.077 13.207C169.159 13.0137 169.2 12.8086 169.2 12.5918V11.9941L170.281 12.1699V12.5303ZM169.2 8.4082C169.2 8.19141 169.159 7.98926 169.077 7.80176C168.995 7.6084 168.884 7.44141 168.743 7.30078C168.602 7.16016 168.435 7.04883 168.242 6.9668C168.054 6.88477 167.852 6.84375 167.636 6.84375H166.915C166.698 6.84375 166.493 6.88477 166.3 6.9668C166.112 7.04883 165.948 7.16016 165.807 7.30078C165.667 7.44141 165.555 7.6084 165.473 7.80176C165.391 7.98926 165.35 8.19141 165.35 8.4082V9.74414H169.2V8.4082ZM175.449 7.02832C175.232 7.02832 175.027 7.06934 174.833 7.15137C174.646 7.2334 174.482 7.34473 174.341 7.48535C174.201 7.62598 174.089 7.79297 174.007 7.98633C173.925 8.17383 173.884 8.37598 173.884 8.59277V15H172.803V6H173.164L173.752 6.91406C173.998 6.58008 174.306 6.31641 174.675 6.12305C175.05 5.92383 175.457 5.82422 175.897 5.82422H176.53V7.02832H175.449ZM181.609 15C181.281 15 180.971 14.9385 180.678 14.8154C180.391 14.6924 180.139 14.5225 179.922 14.3057C179.711 14.0889 179.541 13.8369 179.412 13.5498C179.289 13.2627 179.228 12.9551 179.228 12.627V7.02832H177.61V6H179.228V3.83789L180.309 3.66211V6H182.594V7.02832H180.309V12.6797C180.309 12.8613 180.341 13.0312 180.405 13.1895C180.476 13.3418 180.569 13.4766 180.687 13.5938C180.804 13.7109 180.941 13.8047 181.1 13.875C181.258 13.9395 181.428 13.9717 181.609 13.9717H182.594V15H181.609ZM186.408 18.6035H185.362L186.962 14.2266L184.044 6H185.125L187.471 12.8203L187.507 13.2861L187.542 12.8203L189.88 6H190.961L186.408 18.6035ZM205.04 15V6.36035L204.961 6.89648L202.034 15H201.437L198.483 6.89648L198.413 6.36035V15H197.279V2.39648H197.868L201.691 12.7324L201.727 13.1982L201.762 12.7324L205.576 2.39648H206.174V15H205.04ZM214.532 15L213.934 14.1035C213.688 14.4258 213.381 14.6865 213.011 14.8857C212.642 15.0791 212.238 15.1758 211.798 15.1758H211.526C211.163 15.1758 210.82 15.1084 210.498 14.9736C210.175 14.833 209.894 14.6426 209.654 14.4023C209.414 14.1621 209.223 13.8809 209.083 13.5586C208.948 13.2363 208.881 12.8936 208.881 12.5303V12.4424C208.881 12.0791 208.948 11.7363 209.083 11.4141C209.223 11.0918 209.414 10.8105 209.654 10.5703C209.894 10.3301 210.175 10.1426 210.498 10.0078C210.82 9.86719 211.163 9.79688 211.526 9.79688H213.811V8.4082C213.811 8.19141 213.77 7.98926 213.688 7.80176C213.606 7.6084 213.495 7.44141 213.354 7.30078C213.214 7.16016 213.047 7.04883 212.853 6.9668C212.666 6.88477 212.464 6.84375 212.247 6.84375H211.614C211.397 6.84375 211.192 6.88477 210.999 6.9668C210.811 7.04883 210.647 7.16016 210.506 7.30078C210.366 7.44141 210.255 7.6084 210.173 7.80176C210.09 7.98926 210.049 8.19141 210.049 8.4082V8.7334L208.968 8.55762V8.46973C208.968 8.10645 209.036 7.76367 209.171 7.44141C209.311 7.11914 209.502 6.83789 209.742 6.59766C209.982 6.35742 210.263 6.16992 210.586 6.03516C210.908 5.89453 211.251 5.82422 211.614 5.82422H212.247C212.61 5.82422 212.953 5.89453 213.275 6.03516C213.597 6.16992 213.879 6.35742 214.119 6.59766C214.359 6.83789 214.547 7.11914 214.681 7.44141C214.822 7.76367 214.892 8.10645 214.892 8.46973V15H214.532ZM213.811 10.6406H211.526C211.309 10.6406 211.104 10.6816 210.911 10.7637C210.723 10.8457 210.559 10.96 210.419 11.1064C210.278 11.2471 210.167 11.4141 210.085 11.6074C210.003 11.7949 209.962 11.9971 209.962 12.2139V12.5918C209.962 12.8086 210.003 13.0137 210.085 13.207C210.167 13.3945 210.278 13.5586 210.419 13.6992C210.559 13.8398 210.723 13.9512 210.911 14.0332C211.104 14.1152 211.309 14.1562 211.526 14.1562H212.247C212.464 14.1562 212.666 14.1152 212.853 14.0332C213.047 13.9512 213.214 13.8398 213.354 13.6992C213.495 13.5586 213.606 13.3945 213.688 13.207C213.77 13.0137 213.811 12.8086 213.811 12.5918V10.6406ZM222.345 15V8.4082C222.345 8.19141 222.304 7.98926 222.222 7.80176C222.14 7.6084 222.029 7.44141 221.888 7.30078C221.747 7.16016 221.58 7.04883 221.387 6.9668C221.199 6.88477 220.997 6.84375 220.781 6.84375H220.06C219.843 6.84375 219.638 6.88477 219.445 6.9668C219.257 7.04883 219.093 7.16016 218.952 7.30078C218.812 7.44141 218.7 7.6084 218.618 7.80176C218.536 7.98926 218.495 8.19141 218.495 8.4082V15H217.414V6H217.775L218.364 6.91406C218.61 6.58008 218.917 6.31641 219.286 6.12305C219.661 5.92383 220.069 5.82422 220.508 5.82422H220.781C221.144 5.82422 221.487 5.89453 221.809 6.03516C222.131 6.16992 222.412 6.35742 222.653 6.59766C222.893 6.83789 223.08 7.11914 223.215 7.44141C223.356 7.76367 223.426 8.10645 223.426 8.46973V15H222.345ZM231.6 15L231.002 14.1035C230.756 14.4258 230.448 14.6865 230.079 14.8857C229.71 15.0791 229.306 15.1758 228.866 15.1758H228.594C228.23 15.1758 227.888 15.1084 227.565 14.9736C227.243 14.833 226.962 14.6426 226.722 14.4023C226.481 14.1621 226.291 13.8809 226.15 13.5586C226.016 13.2363 225.948 12.8936 225.948 12.5303V12.4424C225.948 12.0791 226.016 11.7363 226.15 11.4141C226.291 11.0918 226.481 10.8105 226.722 10.5703C226.962 10.3301 227.243 10.1426 227.565 10.0078C227.888 9.86719 228.23 9.79688 228.594 9.79688H230.879V8.4082C230.879 8.19141 230.838 7.98926 230.756 7.80176C230.674 7.6084 230.562 7.44141 230.422 7.30078C230.281 7.16016 230.114 7.04883 229.921 6.9668C229.733 6.88477 229.531 6.84375 229.314 6.84375H228.682C228.465 6.84375 228.26 6.88477 228.066 6.9668C227.879 7.04883 227.715 7.16016 227.574 7.30078C227.434 7.44141 227.322 7.6084 227.24 7.80176C227.158 7.98926 227.117 8.19141 227.117 8.4082V8.7334L226.036 8.55762V8.46973C226.036 8.10645 226.103 7.76367 226.238 7.44141C226.379 7.11914 226.569 6.83789 226.809 6.59766C227.05 6.35742 227.331 6.16992 227.653 6.03516C227.976 5.89453 228.318 5.82422 228.682 5.82422H229.314C229.678 5.82422 230.02 5.89453 230.343 6.03516C230.665 6.16992 230.946 6.35742 231.186 6.59766C231.427 6.83789 231.614 7.11914 231.749 7.44141C231.89 7.76367 231.96 8.10645 231.96 8.46973V15H231.6ZM230.879 10.6406H228.594C228.377 10.6406 228.172 10.6816 227.978 10.7637C227.791 10.8457 227.627 10.96 227.486 11.1064C227.346 11.2471 227.234 11.4141 227.152 11.6074C227.07 11.7949 227.029 11.9971 227.029 12.2139V12.5918C227.029 12.8086 227.07 13.0137 227.152 13.207C227.234 13.3945 227.346 13.5586 227.486 13.6992C227.627 13.8398 227.791 13.9512 227.978 14.0332C228.172 14.1152 228.377 14.1562 228.594 14.1562H229.314C229.531 14.1562 229.733 14.1152 229.921 14.0332C230.114 13.9512 230.281 13.8398 230.422 13.6992C230.562 13.5586 230.674 13.3945 230.756 13.207C230.838 13.0137 230.879 12.8086 230.879 12.5918V10.6406ZM240.582 16.1338C240.582 16.4971 240.511 16.8311 240.371 17.1357C240.236 17.4404 240.048 17.7012 239.808 17.918C239.568 18.1348 239.287 18.3018 238.964 18.4189C238.642 18.542 238.299 18.6035 237.936 18.6035H237.488C237.125 18.6035 236.782 18.542 236.46 18.4189C236.137 18.3018 235.856 18.1348 235.616 17.918C235.376 17.7012 235.185 17.4404 235.044 17.1357C234.91 16.8311 234.842 16.4971 234.842 16.1338V16.0986C234.842 15.7471 234.907 15.4248 235.036 15.1318C235.165 14.8389 235.34 14.584 235.563 14.3672C235.282 14.1973 235.056 13.9688 234.886 13.6816C234.722 13.3887 234.64 13.0664 234.64 12.7148C234.64 12.3984 234.708 12.1055 234.842 11.8359C234.977 11.5605 235.162 11.3379 235.396 11.168C235.115 10.9219 234.892 10.626 234.728 10.2803C234.564 9.93457 234.482 9.55664 234.482 9.14648V8.46973C234.482 8.10645 234.549 7.76367 234.684 7.44141C234.825 7.11914 235.015 6.83789 235.255 6.59766C235.496 6.35742 235.777 6.16992 236.099 6.03516C236.421 5.89453 236.764 5.82422 237.128 5.82422H237.576C238.015 5.82422 238.419 5.92383 238.789 6.12305C239.164 6.31641 239.474 6.58008 239.72 6.91406L240.309 6H240.669V9.14648C240.669 9.50977 240.599 9.85254 240.459 10.1748C240.324 10.4971 240.136 10.7783 239.896 11.0186C239.656 11.2588 239.375 11.4492 239.052 11.5898C238.73 11.7246 238.387 11.792 238.024 11.792H236.46C236.336 11.792 236.219 11.8184 236.108 11.8711C235.997 11.918 235.897 11.9824 235.809 12.0645C235.727 12.1465 235.663 12.2461 235.616 12.3633C235.569 12.4746 235.545 12.5918 235.545 12.7148C235.545 12.8379 235.569 12.9551 235.616 13.0664C235.663 13.1777 235.727 13.2773 235.809 13.3652C235.897 13.4473 235.997 13.5117 236.108 13.5586C236.219 13.6055 236.336 13.6289 236.46 13.6289H237.936C238.299 13.6289 238.642 13.6904 238.964 13.8135C239.287 13.9307 239.568 14.0977 239.808 14.3145C240.048 14.5312 240.236 14.792 240.371 15.0967C240.511 15.4014 240.582 15.7354 240.582 16.0986V16.1338ZM239.597 8.4082C239.597 8.19141 239.556 7.98926 239.474 7.80176C239.392 7.6084 239.278 7.44141 239.131 7.30078C238.991 7.16016 238.824 7.04883 238.63 6.9668C238.443 6.88477 238.241 6.84375 238.024 6.84375H237.128C236.911 6.84375 236.706 6.88477 236.512 6.9668C236.325 7.04883 236.161 7.16016 236.02 7.30078C235.879 7.44141 235.768 7.6084 235.686 7.80176C235.604 7.98926 235.563 8.19141 235.563 8.4082V9.20801C235.563 9.4248 235.604 9.62988 235.686 9.82324C235.768 10.0107 235.879 10.1748 236.02 10.3154C236.161 10.4561 236.325 10.5674 236.512 10.6494C236.706 10.7314 236.911 10.7725 237.128 10.7725H238.024C238.241 10.7725 238.443 10.7314 238.63 10.6494C238.824 10.5674 238.991 10.4561 239.131 10.3154C239.278 10.1748 239.392 10.0107 239.474 9.82324C239.556 9.62988 239.597 9.4248 239.597 9.20801V8.4082ZM239.553 16.0459C239.553 15.8291 239.512 15.6328 239.43 15.457C239.348 15.2871 239.237 15.1436 239.096 15.0264C238.956 14.9092 238.789 14.8184 238.595 14.7539C238.408 14.6895 238.206 14.6572 237.989 14.6572H237.435C237.218 14.6572 237.013 14.6895 236.82 14.7539C236.632 14.8184 236.468 14.9092 236.328 15.0264C236.187 15.1436 236.076 15.2871 235.994 15.457C235.912 15.6328 235.871 15.8291 235.871 16.0459V16.1865C235.871 16.4033 235.912 16.5967 235.994 16.7666C236.076 16.9365 236.187 17.0801 236.328 17.1973C236.468 17.3203 236.632 17.4141 236.82 17.4785C237.013 17.543 237.218 17.5752 237.435 17.5752H237.989C238.206 17.5752 238.408 17.543 238.595 17.4785C238.789 17.4141 238.956 17.3203 239.096 17.1973C239.237 17.0801 239.348 16.9365 239.43 16.7666C239.512 16.5967 239.553 16.4033 239.553 16.1865V16.0459ZM249.028 12.5303C249.028 12.8936 248.957 13.2363 248.817 13.5586C248.682 13.8809 248.494 14.1621 248.254 14.4023C248.014 14.6426 247.733 14.833 247.41 14.9736C247.088 15.1084 246.745 15.1758 246.382 15.1758H245.661C245.298 15.1758 244.955 15.1084 244.633 14.9736C244.311 14.833 244.029 14.6426 243.789 14.4023C243.549 14.1621 243.359 13.8809 243.218 13.5586C243.083 13.2363 243.016 12.8936 243.016 12.5303V8.46973C243.016 8.10645 243.083 7.76367 243.218 7.44141C243.359 7.11914 243.549 6.83789 243.789 6.59766C244.029 6.35742 244.311 6.16992 244.633 6.03516C244.955 5.89453 245.298 5.82422 245.661 5.82422H246.382C246.745 5.82422 247.088 5.89453 247.41 6.03516C247.733 6.16992 248.014 6.35742 248.254 6.59766C248.494 6.83789 248.682 7.11914 248.817 7.44141C248.957 7.76367 249.028 8.10645 249.028 8.46973V10.5879H244.097V12.5918C244.097 12.8086 244.138 13.0137 244.22 13.207C244.302 13.3945 244.413 13.5586 244.554 13.6992C244.695 13.8398 244.859 13.9512 245.046 14.0332C245.239 14.1152 245.445 14.1562 245.661 14.1562H246.382C246.599 14.1562 246.801 14.1152 246.988 14.0332C247.182 13.9512 247.349 13.8398 247.489 13.6992C247.63 13.5586 247.741 13.3945 247.823 13.207C247.905 13.0137 247.946 12.8086 247.946 12.5918V11.9941L249.028 12.1699V12.5303ZM247.946 8.4082C247.946 8.19141 247.905 7.98926 247.823 7.80176C247.741 7.6084 247.63 7.44141 247.489 7.30078C247.349 7.16016 247.182 7.04883 246.988 6.9668C246.801 6.88477 246.599 6.84375 246.382 6.84375H245.661C245.445 6.84375 245.239 6.88477 245.046 6.9668C244.859 7.04883 244.695 7.16016 244.554 7.30078C244.413 7.44141 244.302 7.6084 244.22 7.80176C244.138 7.98926 244.097 8.19141 244.097 8.4082V9.74414H247.946V8.4082ZM261.051 15V8.4082C261.051 8.19141 261.01 7.98926 260.928 7.80176C260.846 7.6084 260.734 7.44141 260.594 7.30078C260.453 7.16016 260.286 7.04883 260.093 6.9668C259.905 6.88477 259.703 6.84375 259.486 6.84375H258.95C258.733 6.84375 258.528 6.88477 258.335 6.9668C258.147 7.04883 257.98 7.16016 257.834 7.30078C257.693 7.44141 257.582 7.6084 257.5 7.80176C257.418 7.98926 257.377 8.19141 257.377 8.4082V15H256.305V8.4082C256.305 8.19141 256.264 7.98926 256.181 7.80176C256.099 7.6084 255.985 7.44141 255.839 7.30078C255.698 7.16016 255.531 7.04883 255.338 6.9668C255.15 6.88477 254.948 6.84375 254.731 6.84375H254.195C253.978 6.84375 253.773 6.88477 253.58 6.9668C253.392 7.04883 253.228 7.16016 253.088 7.30078C252.947 7.44141 252.836 7.6084 252.754 7.80176C252.672 7.98926 252.631 8.19141 252.631 8.4082V15H251.55V6H251.91L252.499 6.91406C252.745 6.58008 253.053 6.31641 253.422 6.12305C253.797 5.92383 254.204 5.82422 254.643 5.82422H254.731C255.241 5.82422 255.701 5.9502 256.111 6.20215C256.521 6.4541 256.838 6.78809 257.06 7.2041C257.172 6.99902 257.309 6.81152 257.473 6.6416C257.638 6.47168 257.819 6.32812 258.018 6.21094C258.218 6.08789 258.434 5.99414 258.669 5.92969C258.903 5.85938 259.146 5.82422 259.398 5.82422H259.486C259.849 5.82422 260.192 5.89453 260.514 6.03516C260.837 6.16992 261.118 6.35742 261.358 6.59766C261.598 6.83789 261.786 7.11914 261.921 7.44141C262.061 7.76367 262.132 8.10645 262.132 8.46973V15H261.051ZM270.665 12.5303C270.665 12.8936 270.595 13.2363 270.455 13.5586C270.32 13.8809 270.132 14.1621 269.892 14.4023C269.652 14.6426 269.371 14.833 269.048 14.9736C268.726 15.1084 268.383 15.1758 268.02 15.1758H267.299C266.936 15.1758 266.593 15.1084 266.271 14.9736C265.949 14.833 265.667 14.6426 265.427 14.4023C265.187 14.1621 264.997 13.8809 264.856 13.5586C264.721 13.2363 264.654 12.8936 264.654 12.5303V8.46973C264.654 8.10645 264.721 7.76367 264.856 7.44141C264.997 7.11914 265.187 6.83789 265.427 6.59766C265.667 6.35742 265.949 6.16992 266.271 6.03516C266.593 5.89453 266.936 5.82422 267.299 5.82422H268.02C268.383 5.82422 268.726 5.89453 269.048 6.03516C269.371 6.16992 269.652 6.35742 269.892 6.59766C270.132 6.83789 270.32 7.11914 270.455 7.44141C270.595 7.76367 270.665 8.10645 270.665 8.46973V10.5879H265.735V12.5918C265.735 12.8086 265.776 13.0137 265.858 13.207C265.94 13.3945 266.051 13.5586 266.192 13.6992C266.332 13.8398 266.497 13.9512 266.684 14.0332C266.877 14.1152 267.082 14.1562 267.299 14.1562H268.02C268.237 14.1562 268.439 14.1152 268.626 14.0332C268.82 13.9512 268.987 13.8398 269.127 13.6992C269.268 13.5586 269.379 13.3945 269.461 13.207C269.543 13.0137 269.584 12.8086 269.584 12.5918V11.9941L270.665 12.1699V12.5303ZM269.584 8.4082C269.584 8.19141 269.543 7.98926 269.461 7.80176C269.379 7.6084 269.268 7.44141 269.127 7.30078C268.987 7.16016 268.82 7.04883 268.626 6.9668C268.439 6.88477 268.237 6.84375 268.02 6.84375H267.299C267.082 6.84375 266.877 6.88477 266.684 6.9668C266.497 7.04883 266.332 7.16016 266.192 7.30078C266.051 7.44141 265.94 7.6084 265.858 7.80176C265.776 7.98926 265.735 8.19141 265.735 8.4082V9.74414H269.584V8.4082ZM278.118 15V8.4082C278.118 8.19141 278.077 7.98926 277.995 7.80176C277.913 7.6084 277.802 7.44141 277.661 7.30078C277.521 7.16016 277.354 7.04883 277.16 6.9668C276.973 6.88477 276.771 6.84375 276.554 6.84375H275.833C275.616 6.84375 275.411 6.88477 275.218 6.9668C275.03 7.04883 274.866 7.16016 274.726 7.30078C274.585 7.44141 274.474 7.6084 274.392 7.80176C274.31 7.98926 274.269 8.19141 274.269 8.4082V15H273.188V6H273.548L274.137 6.91406C274.383 6.58008 274.691 6.31641 275.06 6.12305C275.435 5.92383 275.842 5.82422 276.281 5.82422H276.554C276.917 5.82422 277.26 5.89453 277.582 6.03516C277.904 6.16992 278.186 6.35742 278.426 6.59766C278.666 6.83789 278.854 7.11914 278.988 7.44141C279.129 7.76367 279.199 8.10645 279.199 8.46973V15H278.118ZM285 15C284.672 15 284.361 14.9385 284.068 14.8154C283.781 14.6924 283.529 14.5225 283.312 14.3057C283.101 14.0889 282.931 13.8369 282.802 13.5498C282.679 13.2627 282.618 12.9551 282.618 12.627V7.02832H281.001V6H282.618V3.83789L283.699 3.66211V6H285.984V7.02832H283.699V12.6797C283.699 12.8613 283.731 13.0312 283.796 13.1895C283.866 13.3418 283.96 13.4766 284.077 13.5938C284.194 13.7109 284.332 13.8047 284.49 13.875C284.648 13.9395 284.818 13.9717 285 13.9717H285.984V15H285ZM293.208 18.6035V0.884766H294.342V18.6035H293.208ZM309.195 11.9062C309.195 12.334 309.113 12.7354 308.949 13.1104C308.79 13.4854 308.571 13.8135 308.289 14.0947C308.008 14.376 307.677 14.5986 307.296 14.7627C306.921 14.9209 306.52 15 306.092 15H302.102V2.39648H306.092C306.52 2.39648 306.921 2.47852 307.296 2.64258C307.677 2.80078 308.008 3.02051 308.289 3.30176C308.571 3.58301 308.79 3.91406 308.949 4.29492C309.113 4.66992 309.195 5.07129 309.195 5.49902V11.9062ZM308.061 5.49902C308.061 5.21777 308.008 4.95703 307.903 4.7168C307.797 4.4707 307.651 4.25684 307.463 4.0752C307.282 3.8877 307.068 3.74121 306.822 3.63574C306.581 3.53027 306.321 3.47754 306.039 3.47754H303.236V13.9189H306.039C306.321 13.9189 306.581 13.8662 306.822 13.7607C307.068 13.6553 307.282 13.5117 307.463 13.3301C307.651 13.1484 307.797 12.9375 307.903 12.6973C308.008 12.4512 308.061 12.1875 308.061 11.9062V5.49902ZM311.796 3.83789V2.39648H313.053V3.83789H311.796ZM311.884 15V6H312.965V15H311.884ZM322.044 12.7148C322.044 13.0781 321.97 13.4121 321.824 13.7168C321.677 14.0156 321.478 14.2734 321.226 14.4902C320.974 14.707 320.681 14.877 320.347 15C320.019 15.1172 319.673 15.1758 319.31 15.1758H318.589C318.226 15.1758 317.878 15.1084 317.544 14.9736C317.215 14.833 316.925 14.6426 316.673 14.4023C316.427 14.1621 316.228 13.8809 316.076 13.5586C315.929 13.2363 315.856 12.8936 315.856 12.5303V12.1699L316.937 11.9941V12.5918C316.937 12.8086 316.981 13.0137 317.069 13.207C317.163 13.3945 317.286 13.5586 317.438 13.6992C317.59 13.8398 317.766 13.9512 317.965 14.0332C318.165 14.1152 318.373 14.1562 318.589 14.1562H319.31C319.527 14.1562 319.735 14.124 319.934 14.0596C320.133 13.9951 320.309 13.9043 320.462 13.7871C320.62 13.6641 320.743 13.5176 320.831 13.3477C320.924 13.1777 320.971 12.9844 320.971 12.7676C320.971 12.4453 320.901 12.1816 320.76 11.9766C320.62 11.7715 320.432 11.6016 320.198 11.4668C319.969 11.3262 319.706 11.2119 319.407 11.124C319.114 11.0303 318.812 10.9395 318.502 10.8516C318.191 10.7578 317.886 10.6523 317.587 10.5352C317.295 10.418 317.031 10.2656 316.796 10.0781C316.568 9.88477 316.383 9.64453 316.243 9.35742C316.102 9.07031 316.032 8.71289 316.032 8.28516C316.032 7.92188 316.102 7.59082 316.243 7.29199C316.383 6.9873 316.574 6.72656 316.814 6.50977C317.054 6.29297 317.333 6.12598 317.649 6.00879C317.971 5.88574 318.314 5.82422 318.677 5.82422H319.31C319.673 5.82422 320.016 5.89453 320.338 6.03516C320.661 6.16992 320.942 6.35742 321.182 6.59766C321.422 6.83789 321.61 7.11914 321.745 7.44141C321.885 7.76367 321.956 8.10645 321.956 8.46973V8.50488L320.875 8.68066V8.4082C320.875 8.19141 320.834 7.98926 320.752 7.80176C320.67 7.6084 320.558 7.44141 320.418 7.30078C320.277 7.16016 320.11 7.04883 319.917 6.9668C319.729 6.88477 319.527 6.84375 319.31 6.84375H318.677C318.461 6.84375 318.255 6.87598 318.062 6.94043C317.875 7.00488 317.711 7.09863 317.57 7.22168C317.429 7.33887 317.318 7.48242 317.236 7.65234C317.154 7.82227 317.113 8.01562 317.113 8.23242C317.113 8.54297 317.183 8.79785 317.324 8.99707C317.464 9.19043 317.649 9.35449 317.878 9.48926C318.112 9.62402 318.376 9.73828 318.669 9.83203C318.967 9.91992 319.269 10.0137 319.574 10.1133C319.884 10.207 320.186 10.3154 320.479 10.4385C320.778 10.5615 321.042 10.7197 321.27 10.9131C321.504 11.1064 321.692 11.3496 321.833 11.6426C321.973 11.9297 322.044 12.2871 322.044 12.7148ZM330.49 12.5303C330.49 12.8936 330.419 13.2363 330.279 13.5586C330.144 13.8809 329.956 14.1621 329.716 14.4023C329.476 14.6426 329.195 14.833 328.872 14.9736C328.55 15.1084 328.207 15.1758 327.844 15.1758H327.572C327.167 15.1758 326.792 15.0938 326.447 14.9297C326.101 14.7656 325.805 14.5371 325.559 14.2441V18.6035H324.478V6H324.838L325.427 6.91406C325.673 6.58008 325.981 6.31641 326.35 6.12305C326.725 5.92383 327.132 5.82422 327.572 5.82422H327.844C328.207 5.82422 328.55 5.89453 328.872 6.03516C329.195 6.16992 329.476 6.35742 329.716 6.59766C329.956 6.83789 330.144 7.11914 330.279 7.44141C330.419 7.76367 330.49 8.10645 330.49 8.46973V12.5303ZM329.408 8.4082C329.408 8.19141 329.367 7.98926 329.285 7.80176C329.203 7.6084 329.092 7.44141 328.951 7.30078C328.811 7.16016 328.644 7.04883 328.45 6.9668C328.263 6.88477 328.061 6.84375 327.844 6.84375H327.123C326.906 6.84375 326.701 6.88477 326.508 6.9668C326.321 7.04883 326.156 7.16016 326.016 7.30078C325.875 7.44141 325.764 7.6084 325.682 7.80176C325.6 7.98926 325.559 8.19141 325.559 8.4082V12.5918C325.559 12.8086 325.6 13.0137 325.682 13.207C325.764 13.3945 325.875 13.5586 326.016 13.6992C326.156 13.8398 326.321 13.9512 326.508 14.0332C326.701 14.1152 326.906 14.1562 327.123 14.1562H327.844C328.061 14.1562 328.263 14.1152 328.45 14.0332C328.644 13.9512 328.811 13.8398 328.951 13.6992C329.092 13.5586 329.203 13.3945 329.285 13.207C329.367 13.0137 329.408 12.8086 329.408 12.5918V8.4082ZM338.663 15L338.065 14.0859C337.819 14.4199 337.512 14.6865 337.142 14.8857C336.773 15.0791 336.369 15.1758 335.93 15.1758H335.657C335.294 15.1758 334.951 15.1084 334.629 14.9736C334.307 14.833 334.025 14.6426 333.785 14.4023C333.545 14.1621 333.354 13.8809 333.214 13.5586C333.079 13.2363 333.012 12.8936 333.012 12.5303V6H334.093V12.5918C334.093 12.8086 334.134 13.0137 334.216 13.207C334.298 13.3945 334.409 13.5586 334.55 13.6992C334.69 13.8398 334.854 13.9512 335.042 14.0332C335.235 14.1152 335.44 14.1562 335.657 14.1562H336.378C336.595 14.1562 336.797 14.1152 336.984 14.0332C337.178 13.9512 337.345 13.8398 337.485 13.6992C337.626 13.5586 337.737 13.3945 337.819 13.207C337.901 13.0137 337.942 12.8086 337.942 12.5918V6H339.023V15H338.663ZM344.824 15C344.496 15 344.185 14.9385 343.892 14.8154C343.605 14.6924 343.353 14.5225 343.136 14.3057C342.925 14.0889 342.755 13.8369 342.626 13.5498C342.503 13.2627 342.442 12.9551 342.442 12.627V7.02832H340.825V6H342.442V3.83789L343.523 3.66211V6H345.808V7.02832H343.523V12.6797C343.523 12.8613 343.555 13.0312 343.62 13.1895C343.69 13.3418 343.784 13.4766 343.901 13.5938C344.018 13.7109 344.156 13.8047 344.314 13.875C344.472 13.9395 344.642 13.9717 344.824 13.9717H345.808V15H344.824ZM354.175 12.5303C354.175 12.8936 354.105 13.2363 353.964 13.5586C353.829 13.8809 353.642 14.1621 353.402 14.4023C353.161 14.6426 352.88 14.833 352.558 14.9736C352.236 15.1084 351.893 15.1758 351.529 15.1758H350.809C350.445 15.1758 350.103 15.1084 349.78 14.9736C349.458 14.833 349.177 14.6426 348.937 14.4023C348.696 14.1621 348.506 13.8809 348.365 13.5586C348.231 13.2363 348.163 12.8936 348.163 12.5303V8.46973C348.163 8.10645 348.231 7.76367 348.365 7.44141C348.506 7.11914 348.696 6.83789 348.937 6.59766C349.177 6.35742 349.458 6.16992 349.78 6.03516C350.103 5.89453 350.445 5.82422 350.809 5.82422H351.529C351.893 5.82422 352.236 5.89453 352.558 6.03516C352.88 6.16992 353.161 6.35742 353.402 6.59766C353.642 6.83789 353.829 7.11914 353.964 7.44141C354.105 7.76367 354.175 8.10645 354.175 8.46973V10.5879H349.244V12.5918C349.244 12.8086 349.285 13.0137 349.367 13.207C349.449 13.3945 349.561 13.5586 349.701 13.6992C349.842 13.8398 350.006 13.9512 350.194 14.0332C350.387 14.1152 350.592 14.1562 350.809 14.1562H351.529C351.746 14.1562 351.948 14.1152 352.136 14.0332C352.329 13.9512 352.496 13.8398 352.637 13.6992C352.777 13.5586 352.889 13.3945 352.971 13.207C353.053 13.0137 353.094 12.8086 353.094 12.5918V11.9941L354.175 12.1699V12.5303ZM353.094 8.4082C353.094 8.19141 353.053 7.98926 352.971 7.80176C352.889 7.6084 352.777 7.44141 352.637 7.30078C352.496 7.16016 352.329 7.04883 352.136 6.9668C351.948 6.88477 351.746 6.84375 351.529 6.84375H350.809C350.592 6.84375 350.387 6.88477 350.194 6.9668C350.006 7.04883 349.842 7.16016 349.701 7.30078C349.561 7.44141 349.449 7.6084 349.367 7.80176C349.285 7.98926 349.244 8.19141 349.244 8.4082V9.74414H353.094V8.4082ZM362.885 12.7148C362.885 13.0781 362.811 13.4121 362.665 13.7168C362.518 14.0156 362.319 14.2734 362.067 14.4902C361.815 14.707 361.522 14.877 361.188 15C360.86 15.1172 360.514 15.1758 360.151 15.1758H359.43C359.067 15.1758 358.719 15.1084 358.385 14.9736C358.056 14.833 357.766 14.6426 357.514 14.4023C357.268 14.1621 357.069 13.8809 356.917 13.5586C356.77 13.2363 356.697 12.8936 356.697 12.5303V12.1699L357.778 11.9941V12.5918C357.778 12.8086 357.822 13.0137 357.91 13.207C358.004 13.3945 358.127 13.5586 358.279 13.6992C358.431 13.8398 358.607 13.9512 358.806 14.0332C359.006 14.1152 359.214 14.1562 359.43 14.1562H360.151C360.368 14.1562 360.576 14.124 360.775 14.0596C360.974 13.9951 361.15 13.9043 361.303 13.7871C361.461 13.6641 361.584 13.5176 361.672 13.3477C361.765 13.1777 361.812 12.9844 361.812 12.7676C361.812 12.4453 361.742 12.1816 361.601 11.9766C361.461 11.7715 361.273 11.6016 361.039 11.4668C360.81 11.3262 360.547 11.2119 360.248 11.124C359.955 11.0303 359.653 10.9395 359.343 10.8516C359.032 10.7578 358.727 10.6523 358.429 10.5352C358.136 10.418 357.872 10.2656 357.638 10.0781C357.409 9.88477 357.224 9.64453 357.084 9.35742C356.943 9.07031 356.873 8.71289 356.873 8.28516C356.873 7.92188 356.943 7.59082 357.084 7.29199C357.224 6.9873 357.415 6.72656 357.655 6.50977C357.895 6.29297 358.174 6.12598 358.49 6.00879C358.812 5.88574 359.155 5.82422 359.518 5.82422H360.151C360.514 5.82422 360.857 5.89453 361.18 6.03516C361.502 6.16992 361.783 6.35742 362.023 6.59766C362.263 6.83789 362.451 7.11914 362.586 7.44141C362.726 7.76367 362.797 8.10645 362.797 8.46973V8.50488L361.716 8.68066V8.4082C361.716 8.19141 361.675 7.98926 361.593 7.80176C361.511 7.6084 361.399 7.44141 361.259 7.30078C361.118 7.16016 360.951 7.04883 360.758 6.9668C360.57 6.88477 360.368 6.84375 360.151 6.84375H359.518C359.302 6.84375 359.096 6.87598 358.903 6.94043C358.716 7.00488 358.552 7.09863 358.411 7.22168C358.27 7.33887 358.159 7.48242 358.077 7.65234C357.995 7.82227 357.954 8.01562 357.954 8.23242C357.954 8.54297 358.024 8.79785 358.165 8.99707C358.305 9.19043 358.49 9.35449 358.719 9.48926C358.953 9.62402 359.217 9.73828 359.51 9.83203C359.808 9.91992 360.11 10.0137 360.415 10.1133C360.725 10.207 361.027 10.3154 361.32 10.4385C361.619 10.5615 361.883 10.7197 362.111 10.9131C362.346 11.1064 362.533 11.3496 362.674 11.6426C362.814 11.9297 362.885 12.2871 362.885 12.7148ZM377.28 7.06348C377.28 7.49121 377.198 7.89258 377.034 8.26758C376.876 8.64258 376.656 8.9707 376.375 9.25195C376.094 9.5332 375.763 9.75586 375.382 9.91992C375.007 10.0781 374.606 10.1572 374.178 10.1572H371.321V15H370.188V2.39648H374.178C374.606 2.39648 375.007 2.47852 375.382 2.64258C375.763 2.80078 376.094 3.02051 376.375 3.30176C376.656 3.58301 376.876 3.91406 377.034 4.29492C377.198 4.66992 377.28 5.07129 377.28 5.49902V7.06348ZM376.147 5.49902C376.147 5.21777 376.094 4.95703 375.988 4.7168C375.883 4.4707 375.736 4.25684 375.549 4.0752C375.367 3.8877 375.153 3.74121 374.907 3.63574C374.667 3.53027 374.406 3.47754 374.125 3.47754H371.321V9.07617H374.125C374.406 9.07617 374.667 9.02344 374.907 8.91797C375.153 8.8125 375.367 8.66895 375.549 8.4873C375.736 8.30566 375.883 8.09473 375.988 7.85449C376.094 7.6084 376.147 7.34473 376.147 7.06348V5.49902ZM382.096 7.02832C381.88 7.02832 381.675 7.06934 381.481 7.15137C381.294 7.2334 381.13 7.34473 380.989 7.48535C380.848 7.62598 380.737 7.79297 380.655 7.98633C380.573 8.17383 380.532 8.37598 380.532 8.59277V15H379.451V6H379.811L380.4 6.91406C380.646 6.58008 380.954 6.31641 381.323 6.12305C381.698 5.92383 382.105 5.82422 382.545 5.82422H383.177V7.02832H382.096ZM390.991 12.5303C390.991 12.8936 390.92 13.2363 390.78 13.5586C390.645 13.8809 390.457 14.1621 390.217 14.4023C389.977 14.6426 389.696 14.833 389.373 14.9736C389.051 15.1084 388.708 15.1758 388.345 15.1758H387.624C387.261 15.1758 386.918 15.1084 386.596 14.9736C386.274 14.833 385.993 14.6426 385.752 14.4023C385.512 14.1621 385.322 13.8809 385.181 13.5586C385.046 13.2363 384.979 12.8936 384.979 12.5303V8.46973C384.979 8.10645 385.046 7.76367 385.181 7.44141C385.322 7.11914 385.512 6.83789 385.752 6.59766C385.993 6.35742 386.274 6.16992 386.596 6.03516C386.918 5.89453 387.261 5.82422 387.624 5.82422H388.345C388.708 5.82422 389.051 5.89453 389.373 6.03516C389.696 6.16992 389.977 6.35742 390.217 6.59766C390.457 6.83789 390.645 7.11914 390.78 7.44141C390.92 7.76367 390.991 8.10645 390.991 8.46973V12.5303ZM389.91 8.4082C389.91 8.19141 389.869 7.98926 389.786 7.80176C389.704 7.6084 389.593 7.44141 389.453 7.30078C389.312 7.16016 389.145 7.04883 388.952 6.9668C388.764 6.88477 388.562 6.84375 388.345 6.84375H387.624C387.408 6.84375 387.203 6.88477 387.009 6.9668C386.822 7.04883 386.658 7.16016 386.517 7.30078C386.376 7.44141 386.265 7.6084 386.183 7.80176C386.101 7.98926 386.06 8.19141 386.06 8.4082V12.5918C386.06 12.8086 386.101 13.0137 386.183 13.207C386.265 13.3945 386.376 13.5586 386.517 13.6992C386.658 13.8398 386.822 13.9512 387.009 14.0332C387.203 14.1152 387.408 14.1562 387.624 14.1562H388.345C388.562 14.1562 388.764 14.1152 388.952 14.0332C389.145 13.9512 389.312 13.8398 389.453 13.6992C389.593 13.5586 389.704 13.3945 389.786 13.207C389.869 13.0137 389.91 12.8086 389.91 12.5918V8.4082ZM399.524 12.5303C399.524 12.8936 399.454 13.2363 399.313 13.5586C399.179 13.8809 398.991 14.1621 398.751 14.4023C398.511 14.6426 398.229 14.833 397.907 14.9736C397.585 15.1084 397.242 15.1758 396.879 15.1758H396.158C395.795 15.1758 395.452 15.1084 395.13 14.9736C394.808 14.833 394.526 14.6426 394.286 14.4023C394.046 14.1621 393.855 13.8809 393.715 13.5586C393.58 13.2363 393.513 12.8936 393.513 12.5303V8.46973C393.513 8.10645 393.58 7.76367 393.715 7.44141C393.855 7.11914 394.046 6.83789 394.286 6.59766C394.526 6.35742 394.808 6.16992 395.13 6.03516C395.452 5.89453 395.795 5.82422 396.158 5.82422H396.879C397.242 5.82422 397.585 5.89453 397.907 6.03516C398.229 6.16992 398.511 6.35742 398.751 6.59766C398.991 6.83789 399.179 7.11914 399.313 7.44141C399.454 7.76367 399.524 8.10645 399.524 8.46973V8.83008L398.443 9.00586V8.4082C398.443 8.19141 398.402 7.98926 398.32 7.80176C398.238 7.6084 398.127 7.44141 397.986 7.30078C397.846 7.16016 397.679 7.04883 397.485 6.9668C397.298 6.88477 397.096 6.84375 396.879 6.84375H396.158C395.941 6.84375 395.736 6.88477 395.543 6.9668C395.355 7.04883 395.191 7.16016 395.051 7.30078C394.91 7.44141 394.799 7.6084 394.717 7.80176C394.635 7.98926 394.594 8.19141 394.594 8.4082V12.5918C394.594 12.8086 394.635 13.0137 394.717 13.207C394.799 13.3945 394.91 13.5586 395.051 13.6992C395.191 13.8398 395.355 13.9512 395.543 14.0332C395.736 14.1152 395.941 14.1562 396.158 14.1562H396.879C397.096 14.1562 397.298 14.1152 397.485 14.0332C397.679 13.9512 397.846 13.8398 397.986 13.6992C398.127 13.5586 398.238 13.3945 398.32 13.207C398.402 13.0137 398.443 12.8086 398.443 12.5918V11.9941L399.524 12.1699V12.5303ZM408.058 12.5303C408.058 12.8936 407.988 13.2363 407.847 13.5586C407.713 13.8809 407.525 14.1621 407.285 14.4023C407.045 14.6426 406.763 14.833 406.441 14.9736C406.119 15.1084 405.776 15.1758 405.413 15.1758H404.692C404.329 15.1758 403.986 15.1084 403.664 14.9736C403.341 14.833 403.06 14.6426 402.82 14.4023C402.58 14.1621 402.389 13.8809 402.249 13.5586C402.114 13.2363 402.047 12.8936 402.047 12.5303V8.46973C402.047 8.10645 402.114 7.76367 402.249 7.44141C402.389 7.11914 402.58 6.83789 402.82 6.59766C403.06 6.35742 403.341 6.16992 403.664 6.03516C403.986 5.89453 404.329 5.82422 404.692 5.82422H405.413C405.776 5.82422 406.119 5.89453 406.441 6.03516C406.763 6.16992 407.045 6.35742 407.285 6.59766C407.525 6.83789 407.713 7.11914 407.847 7.44141C407.988 7.76367 408.058 8.10645 408.058 8.46973V10.5879H403.128V12.5918C403.128 12.8086 403.169 13.0137 403.251 13.207C403.333 13.3945 403.444 13.5586 403.585 13.6992C403.725 13.8398 403.889 13.9512 404.077 14.0332C404.27 14.1152 404.475 14.1562 404.692 14.1562H405.413C405.63 14.1562 405.832 14.1152 406.019 14.0332C406.213 13.9512 406.38 13.8398 406.52 13.6992C406.661 13.5586 406.772 13.3945 406.854 13.207C406.936 13.0137 406.977 12.8086 406.977 12.5918V11.9941L408.058 12.1699V12.5303ZM406.977 8.4082C406.977 8.19141 406.936 7.98926 406.854 7.80176C406.772 7.6084 406.661 7.44141 406.52 7.30078C406.38 7.16016 406.213 7.04883 406.019 6.9668C405.832 6.88477 405.63 6.84375 405.413 6.84375H404.692C404.475 6.84375 404.27 6.88477 404.077 6.9668C403.889 7.04883 403.725 7.16016 403.585 7.30078C403.444 7.44141 403.333 7.6084 403.251 7.80176C403.169 7.98926 403.128 8.19141 403.128 8.4082V9.74414H406.977V8.4082ZM416.768 12.7148C416.768 13.0781 416.695 13.4121 416.548 13.7168C416.402 14.0156 416.202 14.2734 415.95 14.4902C415.699 14.707 415.406 14.877 415.072 15C414.743 15.1172 414.398 15.1758 414.034 15.1758H413.314C412.95 15.1758 412.602 15.1084 412.268 14.9736C411.94 14.833 411.65 14.6426 411.398 14.4023C411.152 14.1621 410.952 13.8809 410.8 13.5586C410.654 13.2363 410.58 12.8936 410.58 12.5303V12.1699L411.661 11.9941V12.5918C411.661 12.8086 411.705 13.0137 411.793 13.207C411.887 13.3945 412.01 13.5586 412.162 13.6992C412.315 13.8398 412.491 13.9512 412.69 14.0332C412.889 14.1152 413.097 14.1562 413.314 14.1562H414.034C414.251 14.1562 414.459 14.124 414.658 14.0596C414.858 13.9951 415.033 13.9043 415.186 13.7871C415.344 13.6641 415.467 13.5176 415.555 13.3477C415.649 13.1777 415.696 12.9844 415.696 12.7676C415.696 12.4453 415.625 12.1816 415.485 11.9766C415.344 11.7715 415.157 11.6016 414.922 11.4668C414.694 11.3262 414.43 11.2119 414.131 11.124C413.838 11.0303 413.536 10.9395 413.226 10.8516C412.915 10.7578 412.611 10.6523 412.312 10.5352C412.019 10.418 411.755 10.2656 411.521 10.0781C411.292 9.88477 411.108 9.64453 410.967 9.35742C410.826 9.07031 410.756 8.71289 410.756 8.28516C410.756 7.92188 410.826 7.59082 410.967 7.29199C411.108 6.9873 411.298 6.72656 411.538 6.50977C411.779 6.29297 412.057 6.12598 412.373 6.00879C412.696 5.88574 413.038 5.82422 413.402 5.82422H414.034C414.398 5.82422 414.741 5.89453 415.063 6.03516C415.385 6.16992 415.666 6.35742 415.907 6.59766C416.147 6.83789 416.334 7.11914 416.469 7.44141C416.61 7.76367 416.68 8.10645 416.68 8.46973V8.50488L415.599 8.68066V8.4082C415.599 8.19141 415.558 7.98926 415.476 7.80176C415.394 7.6084 415.283 7.44141 415.142 7.30078C415.001 7.16016 414.834 7.04883 414.641 6.9668C414.453 6.88477 414.251 6.84375 414.034 6.84375H413.402C413.185 6.84375 412.98 6.87598 412.786 6.94043C412.599 7.00488 412.435 7.09863 412.294 7.22168C412.154 7.33887 412.042 7.48242 411.96 7.65234C411.878 7.82227 411.837 8.01562 411.837 8.23242C411.837 8.54297 411.908 8.79785 412.048 8.99707C412.189 9.19043 412.373 9.35449 412.602 9.48926C412.836 9.62402 413.1 9.73828 413.393 9.83203C413.692 9.91992 413.993 10.0137 414.298 10.1133C414.609 10.207 414.91 10.3154 415.203 10.4385C415.502 10.5615 415.766 10.7197 415.994 10.9131C416.229 11.1064 416.416 11.3496 416.557 11.6426C416.698 11.9297 416.768 12.2871 416.768 12.7148ZM425.39 12.7148C425.39 13.0781 425.316 13.4121 425.17 13.7168C425.023 14.0156 424.824 14.2734 424.572 14.4902C424.32 14.707 424.027 14.877 423.693 15C423.365 15.1172 423.019 15.1758 422.656 15.1758H421.935C421.572 15.1758 421.224 15.1084 420.89 14.9736C420.561 14.833 420.271 14.6426 420.019 14.4023C419.773 14.1621 419.574 13.8809 419.422 13.5586C419.275 13.2363 419.202 12.8936 419.202 12.5303V12.1699L420.283 11.9941V12.5918C420.283 12.8086 420.327 13.0137 420.415 13.207C420.509 13.3945 420.632 13.5586 420.784 13.6992C420.936 13.8398 421.112 13.9512 421.311 14.0332C421.511 14.1152 421.719 14.1562 421.935 14.1562H422.656C422.873 14.1562 423.081 14.124 423.28 14.0596C423.479 13.9951 423.655 13.9043 423.808 13.7871C423.966 13.6641 424.089 13.5176 424.177 13.3477C424.27 13.1777 424.317 12.9844 424.317 12.7676C424.317 12.4453 424.247 12.1816 424.106 11.9766C423.966 11.7715 423.778 11.6016 423.544 11.4668C423.315 11.3262 423.052 11.2119 422.753 11.124C422.46 11.0303 422.158 10.9395 421.848 10.8516C421.537 10.7578 421.232 10.6523 420.934 10.5352C420.641 10.418 420.377 10.2656 420.142 10.0781C419.914 9.88477 419.729 9.64453 419.589 9.35742C419.448 9.07031 419.378 8.71289 419.378 8.28516C419.378 7.92188 419.448 7.59082 419.589 7.29199C419.729 6.9873 419.92 6.72656 420.16 6.50977C420.4 6.29297 420.679 6.12598 420.995 6.00879C421.317 5.88574 421.66 5.82422 422.023 5.82422H422.656C423.019 5.82422 423.362 5.89453 423.684 6.03516C424.007 6.16992 424.288 6.35742 424.528 6.59766C424.768 6.83789 424.956 7.11914 425.091 7.44141C425.231 7.76367 425.302 8.10645 425.302 8.46973V8.50488L424.221 8.68066V8.4082C424.221 8.19141 424.18 7.98926 424.098 7.80176C424.016 7.6084 423.904 7.44141 423.764 7.30078C423.623 7.16016 423.456 7.04883 423.263 6.9668C423.075 6.88477 422.873 6.84375 422.656 6.84375H422.023C421.807 6.84375 421.601 6.87598 421.408 6.94043C421.221 7.00488 421.057 7.09863 420.916 7.22168C420.775 7.33887 420.664 7.48242 420.582 7.65234C420.5 7.82227 420.459 8.01562 420.459 8.23242C420.459 8.54297 420.529 8.79785 420.67 8.99707C420.81 9.19043 420.995 9.35449 421.224 9.48926C421.458 9.62402 421.722 9.73828 422.015 9.83203C422.313 9.91992 422.615 10.0137 422.92 10.1133C423.23 10.207 423.532 10.3154 423.825 10.4385C424.124 10.5615 424.388 10.7197 424.616 10.9131C424.85 11.1064 425.038 11.3496 425.179 11.6426C425.319 11.9297 425.39 12.2871 425.39 12.7148Z" fill="black"/>
</svg>
