<svg width="32" height="32" viewBox="0 0 32 32" fill="none" xmlns="http://www.w3.org/2000/svg">
<path d="M19 19.9999C18.8022 19.9999 18.6089 20.0586 18.4444 20.1685C18.28 20.2784 18.1518 20.4345 18.0761 20.6173C18.0004 20.8 17.9806 21.0011 18.0192 21.195C18.0578 21.389 18.153 21.5672 18.2929 21.7071C18.4327 21.8469 18.6109 21.9421 18.8049 21.9807C18.9989 22.0193 19.2 21.9995 19.3827 21.9238C19.5654 21.8481 19.7216 21.72 19.8315 21.5555C19.9414 21.3911 20 21.1977 20 20.9999C20 20.7347 19.8946 20.4804 19.7071 20.2928C19.5196 20.1053 19.2652 19.9999 19 19.9999ZM21 13.9999C20.8022 13.9999 20.6089 14.0586 20.4444 14.1685C20.28 14.2784 20.1518 14.4345 20.0761 14.6173C20.0004 14.8 19.9806 15.0011 20.0192 15.195C20.0578 15.389 20.153 15.5672 20.2929 15.7071C20.4327 15.8469 20.6109 15.9421 20.8049 15.9807C20.9989 16.0193 21.2 15.9995 21.3827 15.9238C21.5654 15.8481 21.7216 15.72 21.8315 15.5555C21.9414 15.3911 22 15.1977 22 14.9999C22 14.7347 21.8946 14.4804 21.7071 14.2928C21.5196 14.1053 21.2652 13.9999 21 13.9999ZM23 17.9999C23.1978 17.9999 23.3911 17.9413 23.5556 17.8314C23.72 17.7215 23.8482 17.5654 23.9239 17.3826C23.9996 17.1999 24.0194 16.9988 23.9808 16.8049C23.9422 16.6109 23.847 16.4327 23.7071 16.2928C23.5673 16.153 23.3891 16.0577 23.1951 16.0192C23.0011 15.9806 22.8 16.0004 22.6173 16.0761C22.4346 16.1518 22.2784 16.2799 22.1685 16.4444C22.0586 16.6088 22 16.8022 22 16.9999C22 17.2652 22.1054 17.5195 22.2929 17.7071C22.4804 17.8946 22.7348 17.9999 23 17.9999ZM21 19.9999C21.1978 19.9999 21.3911 19.9413 21.5556 19.8314C21.72 19.7215 21.8482 19.5654 21.9239 19.3826C21.9996 19.1999 22.0194 18.9988 21.9808 18.8049C21.9422 18.6109 21.847 18.4327 21.7071 18.2928C21.5673 18.153 21.3891 18.0577 21.1951 18.0192C21.0011 17.9806 20.8 18.0004 20.6173 18.0761C20.4346 18.1518 20.2784 18.2799 20.1685 18.4444C20.0586 18.6088 20 18.8022 20 18.9999C20 19.2652 20.1054 19.5195 20.2929 19.7071C20.4804 19.8946 20.7348 19.9999 21 19.9999ZM19 15.9999C18.8022 15.9999 18.6089 16.0586 18.4444 16.1685C18.28 16.2784 18.1518 16.4345 18.0761 16.6173C18.0004 16.8 17.9806 17.0011 18.0192 17.195C18.0578 17.389 18.153 17.5672 18.2929 17.7071C18.4327 17.8469 18.6109 17.9421 18.8049 17.9807C18.9989 18.0193 19.2 17.9995 19.3827 17.9238C19.5654 17.8481 19.7216 17.72 19.8315 17.5555C19.9414 17.3911 20 17.1977 20 16.9999C20 16.7347 19.8946 16.4804 19.7071 16.2928C19.5196 16.1053 19.2652 15.9999 19 15.9999ZM27 13.9999C27.1978 13.9999 27.3911 13.9413 27.5556 13.8314C27.72 13.7215 27.8482 13.5654 27.9239 13.3826C27.9996 13.1999 28.0194 12.9988 27.9808 12.8049C27.9422 12.6109 27.847 12.4327 27.7071 12.2928C27.5673 12.153 27.3891 12.0577 27.1951 12.0192C27.0011 11.9806 26.8 12.0004 26.6173 12.0761C26.4346 12.1518 26.2784 12.2799 26.1685 12.4444C26.0586 12.6088 26 12.8022 26 12.9999C26 13.2652 26.1054 13.5195 26.2929 13.7071C26.4804 13.8946 26.7348 13.9999 27 13.9999ZM24 14.9999C24 15.1977 24.0586 15.3911 24.1685 15.5555C24.2784 15.72 24.4346 15.8481 24.6173 15.9238C24.8 15.9995 25.0011 16.0193 25.1951 15.9807C25.3891 15.9421 25.5673 15.8469 25.7071 15.7071C25.847 15.5672 25.9422 15.389 25.9808 15.195C26.0194 15.0011 25.9996 14.8 25.9239 14.6173C25.8482 14.4345 25.72 14.2784 25.5556 14.1685C25.3911 14.0586 25.1978 13.9999 25 13.9999C24.7348 13.9999 24.4804 14.1053 24.2929 14.2928C24.1054 14.4804 24 14.7347 24 14.9999ZM23 11.9999C22.8022 11.9999 22.6089 12.0586 22.4444 12.1685C22.28 12.2784 22.1518 12.4345 22.0761 12.6173C22.0004 12.8 21.9806 13.0011 22.0192 13.195C22.0578 13.389 22.153 13.5672 22.2929 13.7071C22.4327 13.8469 22.6109 13.9421 22.8049 13.9807C22.9989 14.0193 23.2 13.9995 23.3827 13.9238C23.5654 13.8481 23.7216 13.72 23.8315 13.5555C23.9414 13.3911 24 13.1977 24 12.9999C24 12.7347 23.8946 12.4804 23.7071 12.2928C23.5196 12.1053 23.2652 11.9999 23 11.9999ZM29 13.9999C28.8022 13.9999 28.6089 14.0586 28.4444 14.1685C28.28 14.2784 28.1518 14.4345 28.0761 14.6173C28.0004 14.8 27.9806 15.0011 28.0192 15.195C28.0578 15.389 28.153 15.5672 28.2929 15.7071C28.4327 15.8469 28.6109 15.9421 28.8049 15.9807C28.9989 16.0193 29.2 15.9995 29.3827 15.9238C29.5654 15.8481 29.7216 15.72 29.8315 15.5555C29.9414 15.3911 30 15.1977 30 14.9999C30 14.7347 29.8946 14.4804 29.7071 14.2928C29.5196 14.1053 29.2652 13.9999 29 13.9999ZM31 11.9999C30.8022 11.9999 30.6089 12.0586 30.4444 12.1685C30.28 12.2784 30.1518 12.4345 30.0761 12.6173C30.0004 12.8 29.9806 13.0011 30.0192 13.195C30.0578 13.389 30.153 13.5672 30.2929 13.7071C30.4327 13.8469 30.6109 13.9421 30.8049 13.9807C30.9989 14.0193 31.2 13.9995 31.3827 13.9238C31.5654 13.8481 31.7216 13.72 31.8315 13.5555C31.9414 13.3911 32 13.1977 32 12.9999C32 12.7347 31.8946 12.4804 31.7071 12.2928C31.5196 12.1053 31.2652 11.9999 31 11.9999ZM27 15.9999C26.8022 15.9999 26.6089 16.0586 26.4444 16.1685C26.28 16.2784 26.1518 16.4345 26.0761 16.6173C26.0004 16.8 25.9806 17.0011 26.0192 17.195C26.0578 17.389 26.153 17.5672 26.2929 17.7071C26.4327 17.8469 26.6109 17.9421 26.8049 17.9807C26.9989 18.0193 27.2 17.9995 27.3827 17.9238C27.5654 17.8481 27.7216 17.72 27.8315 17.5555C27.9414 17.3911 28 17.1977 28 16.9999C28 16.7347 27.8946 16.4804 27.7071 16.2928C27.5196 16.1053 27.2652 15.9999 27 15.9999ZM25 17.9999C24.8022 17.9999 24.6089 18.0586 24.4444 18.1685C24.28 18.2784 24.1518 18.4345 24.0761 18.6173C24.0004 18.8 23.9806 19.0011 24.0192 19.195C24.0578 19.389 24.153 19.5672 24.2929 19.7071C24.4327 19.8469 24.6109 19.9421 24.8049 19.9807C24.9989 20.0193 25.2 19.9995 25.3827 19.9238C25.5654 19.8481 25.7216 19.72 25.8315 19.5555C25.9414 19.3911 26 19.1977 26 18.9999C26 18.7347 25.8946 18.4804 25.7071 18.2928C25.5196 18.1053 25.2652 17.9999 25 17.9999ZM21 21.9999C20.8022 21.9999 20.6089 22.0586 20.4444 22.1685C20.28 22.2784 20.1518 22.4345 20.0761 22.6173C20.0004 22.8 19.9806 23.0011 20.0192 23.195C20.0578 23.389 20.153 23.5672 20.2929 23.7071C20.4327 23.8469 20.6109 23.9421 20.8049 23.9807C20.9989 24.0193 21.2 23.9995 21.3827 23.9238C21.5654 23.8481 21.7216 23.72 21.8315 23.5555C21.9414 23.3911 22 23.1977 22 22.9999C22 22.7347 21.8946 22.4804 21.7071 22.2928C21.5196 22.1053 21.2652 21.9999 21 21.9999ZM19 23.9999C18.8022 23.9999 18.6089 24.0586 18.4444 24.1685C18.28 24.2784 18.1518 24.4345 18.0761 24.6173C18.0004 24.8 17.9806 25.0011 18.0192 25.195C18.0578 25.389 18.153 25.5672 18.2929 25.7071C18.4327 25.8469 18.6109 25.9421 18.8049 25.9807C18.9989 26.0193 19.2 25.9995 19.3827 25.9238C19.5654 25.8481 19.7216 25.72 19.8315 25.5555C19.9414 25.3911 20 25.1977 20 24.9999C20 24.7347 19.8946 24.4804 19.7071 24.2928C19.5196 24.1053 19.2652 23.9999 19 23.9999ZM23 19.9999C22.8022 19.9999 22.6089 20.0586 22.4444 20.1685C22.28 20.2784 22.1518 20.4345 22.0761 20.6173C22.0004 20.8 21.9806 21.0011 22.0192 21.195C22.0578 21.389 22.153 21.5672 22.2929 21.7071C22.4327 21.8469 22.6109 21.9421 22.8049 21.9807C22.9989 22.0193 23.2 21.9995 23.3827 21.9238C23.5654 21.8481 23.7216 21.72 23.8315 21.5555C23.9414 21.3911 24 21.1977 24 20.9999C24 20.7347 23.8946 20.4804 23.7071 20.2928C23.5196 20.1053 23.2652 19.9999 23 19.9999ZM24.3531 6.35307L23.6469 5.64619C23.554 5.55331 23.4438 5.47963 23.3224 5.42936C23.2011 5.37909 23.071 5.35322 22.9397 5.35322C22.8083 5.35322 22.6783 5.37909 22.557 5.42936C22.4356 5.47963 22.3254 5.55331 22.2325 5.64619L21.8781 5.99994C20.5779 4.71841 18.8256 3.99998 17 3.99995C15.7975 3.99995 14.6825 4.3312 13.6938 4.86557L13.0688 4.24057C11.6504 2.81557 9.72555 2.01001 7.715 1.99995C3.46813 1.9687 0 5.80682 0 10.0531V28.9999C0 29.2652 0.105357 29.5195 0.292893 29.7071C0.48043 29.8946 0.734784 29.9999 1 29.9999H3C3.26522 29.9999 3.51957 29.8946 3.70711 29.7071C3.89464 29.5195 4 29.2652 4 28.9999V9.89994C4 8.01557 5.3125 6.26244 7.1875 6.02932C7.74302 5.95654 8.30783 6.01267 8.83816 6.19334C9.36849 6.37402 9.85009 6.6744 10.2456 7.07119L10.8706 7.69619C10.3312 8.68244 10 9.79745 10 10.9999C10.0003 12.8255 10.7187 14.5777 12 15.8781L11.6462 16.2324C11.4589 16.42 11.3536 16.6742 11.3536 16.9393C11.3536 17.2044 11.4589 17.4587 11.6462 17.6462L12.3525 18.3531C12.4454 18.446 12.5556 18.5196 12.677 18.5699C12.7983 18.6202 12.9283 18.646 13.0597 18.646C13.191 18.646 13.3211 18.6202 13.4424 18.5699C13.5638 18.5196 13.674 18.446 13.7669 18.3531L24.3531 7.76744C24.446 7.67458 24.5197 7.56433 24.57 7.44299C24.6202 7.32165 24.6461 7.1916 24.6461 7.06026C24.6461 6.92892 24.6202 6.79886 24.57 6.67752C24.5197 6.55618 24.446 6.44593 24.3531 6.35307Z" fill="#B8B8B8"/>
</svg>
