<svg width="83" height="83" viewBox="0 0 83 83" fill="none" xmlns="http://www.w3.org/2000/svg">
<path d="M81.55 17.4577C81.2077 16.4308 80.0096 16.2596 79.1539 16.9442L65.2904 30.8077C64.2635 31.8346 62.5519 31.8346 61.525 30.8077L51.7693 21.0519C50.7423 20.025 50.7423 18.3135 51.7693 17.2865L65.8039 3.42308C66.4885 2.73846 66.1462 1.54038 65.2904 1.02692C62.8943 0.342308 60.3269 0 57.9308 0C43.3827 0 31.7443 12.4942 33.4558 27.3846C33.7981 29.7808 34.3116 31.8346 35.1673 33.8885L3.16156 65.7231C-0.603822 69.4885 -0.603822 75.65 3.16156 79.2442C5.04426 81.1269 7.61156 82.1538 10.0077 82.1538C12.4039 82.1538 14.9712 81.1269 16.8539 79.2442L48.6885 47.4096C50.7423 48.2654 52.9673 48.7788 55.1923 49.1212C70.0827 50.8327 82.5769 39.1942 82.5769 24.6462C82.5769 22.0788 82.2346 19.6827 81.55 17.4577Z" fill="black"/>
</svg>
